<svg width="124" height="154" viewBox="0 0 124 154" fill="none" xmlns="http://www.w3.org/2000/svg">
<path d="M12.9743 120.847C28.43 109.725 40.7662 100.528 49.9829 93.2556C59.1996 85.9833 67.1401 78.5685 73.8045 71.0111C80.6106 63.3111 84.5809 55.9676 85.7153 48.9805C86.1407 46.9842 86.3533 45.1306 86.3533 43.4194C86.3533 39.2843 85.219 36.1472 82.9503 34.0083C80.8233 31.8694 77.562 30.8 73.1664 30.8C62.2481 30.8 55.3002 38.5713 52.3225 54.1139H17.0154C20.7021 36.1472 28.3591 22.6722 39.9863 13.6889C51.7553 4.56296 65.2258 0 80.3979 0C95.1447 0 106.063 3.35092 113.153 10.0528C120.384 16.7546 124 25.5954 124 36.575C124 39.9972 123.716 43.1343 123.149 45.9861C120.597 60.5306 113.082 74.0769 100.604 86.625C88.2676 99.1731 72.9537 111.721 54.6621 124.269H112.089L106.772 154H0L4.67925 126.836L12.9743 120.847Z" fill="#FFD648" fill-opacity="0.33"/>
</svg>
