<svg width="119" height="160" viewBox="0 0 119 160" fill="none" xmlns="http://www.w3.org/2000/svg">
<path d="M13.78 47.276C17.0307 32.1533 24.0267 20.4933 34.768 12.296C45.5093 4.09867 58.8653 0 74.836 0C88.828 0 99.5693 3.18 107.06 9.54C114.551 15.9 118.296 24.168 118.296 34.344C118.296 36.888 118.084 39.432 117.66 41.976C115.964 51.304 112.289 58.936 106.636 64.872C100.983 70.6667 94.8347 74.624 88.192 76.744V77.592C94.552 79.8533 99.4987 83.3867 103.032 88.192C106.565 92.856 108.332 98.792 108.332 106C108.332 109.109 108.049 112.077 107.484 114.904C105.081 128.189 98.6507 139.001 88.192 147.34C77.7333 155.537 64.5893 159.636 48.76 159.636C33.6373 159.636 21.6947 156.315 12.932 149.672C4.31067 143.029 0 132.924 0 119.356C0 117.519 0.282667 114.197 0.848 109.392H36.04C35.7573 111.653 35.616 113.208 35.616 114.056C35.616 119.003 37.0293 122.819 39.856 125.504C42.6827 128.189 46.9227 129.532 52.576 129.532C58.936 129.532 64.024 127.483 67.84 123.384C71.656 119.285 73.564 114.056 73.564 107.696C73.564 102.467 71.5853 98.7213 67.628 96.46C63.812 94.0573 57.7347 92.856 49.396 92.856H42.612L47.912 63.388H54.696C70.6667 63.388 79.712 57.7347 81.832 46.428C82.1147 44.732 82.256 43.46 82.256 42.612C82.256 38.6547 81.0547 35.616 78.652 33.496C76.3907 31.376 73.0693 30.316 68.688 30.316C63.3173 30.316 59.0067 31.9413 55.756 35.192C52.5053 38.4427 50.244 42.4707 48.972 47.276H13.78Z" fill="#FFD648" fill-opacity="0.33"/>
</svg>
