<svg width="339" height="165" viewBox="0 0 339 165" fill="none" xmlns="http://www.w3.org/2000/svg">
<path d="M327.872 108.722C359.394 84.6269 317.053 72.7418 285.375 96.9594C273.943 105.731 260.339 114.874 245.043 121.05C240.087 123.195 234.931 124.732 230.072 125.511C228.386 125.809 226.901 125.757 225.855 125.363L225.768 125.152C224.684 121.551 234.08 112.181 237.475 107.858C244.711 98.5874 250.769 89.8832 252.797 81.2776C259.269 52.5022 220.709 36.3233 167.18 51.866C154.871 55.7252 142.568 59.9688 130.338 64.5736C122.223 67.4373 122.756 66.3214 124.032 61.3007C125.602 54.293 134.515 44.8578 139.526 37.3314C147.006 26.1523 151.868 15.0733 144.679 7.98249C120.823 -15.4953 19.7317 21.0403 1.78521 57.7869C-5.31655 72.271 20.13 71.9157 39.1002 59.0936C48.3652 52.8027 59.6792 45.5449 71.3209 41.6702C72.2063 41.3017 78.9506 40.0359 82.7554 39.1944C79.2158 42.5698 76.4288 49.1515 74.1946 52.2691C70.779 56.876 67.7733 61.4557 65.1937 65.9835C60.4842 74.6279 58.9039 82.7328 60.5673 89.7103C62.3004 97.0031 69.2174 102.098 80.1437 104.129C91.07 106.16 105.332 105.003 120.507 100.853C138.826 95.9501 162.945 83.0208 177.601 85.2917C190.175 87.25 191.569 95.592 184.689 105.418C172.523 122.809 155.768 139.655 163.529 153.014C171.515 166.812 201.248 167.869 232.669 158.806C267.914 148.552 301.909 128.602 327.872 108.722Z" fill="white"/>
</svg>
