<svg width="50" height="38" viewBox="0 0 50 38" fill="none" xmlns="http://www.w3.org/2000/svg">
<path d="M50.0005 25C50.0005 21.1653 49.1183 17.382 47.4223 13.9428C45.7263 10.5036 43.2618 7.50058 40.2195 5.16617C37.1773 2.83175 33.6388 1.22848 29.8777 0.480368C26.1167 -0.267743 22.234 -0.140637 18.53 0.851854C14.826 1.84435 11.3999 3.67562 8.51684 6.204C5.63377 8.73239 3.37097 11.8901 1.9035 15.4329C0.436027 18.9757 -0.196786 22.8086 0.0540152 26.6351C0.304816 30.4616 1.43251 34.1791 3.34985 37.5L13.6007 31.5816C12.5912 29.8331 11.9974 27.8757 11.8654 25.8609C11.7333 23.8462 12.0665 21.828 12.8392 19.9626C13.6119 18.0972 14.8033 16.4346 16.3213 15.1033C17.8394 13.772 19.6433 12.8078 21.5936 12.2852C23.5439 11.7627 25.5882 11.6957 27.5685 12.0896C29.5488 12.4835 31.4119 13.3277 33.0138 14.5569C34.6156 15.786 35.9133 17.3672 36.8063 19.178C37.6993 20.9889 38.1638 22.9809 38.1638 25H50.0005Z" fill="#FFC124"/>
</svg>
