<svg width="150" height="151" viewBox="0 0 150 151" fill="none" xmlns="http://www.w3.org/2000/svg">
<path fill-rule="evenodd" clip-rule="evenodd" d="M39.6648 141.802C40.2801 141.326 56.1058 118.096 58.1724 115.212C62.7855 108.774 67.4188 101.656 72.0076 95.2366L76.5912 88.5182C76.63 88.5488 76.6878 88.5484 76.7047 88.6139L89.6523 107.135L106.985 106.901C106.647 106.066 102.146 99.719 101.269 98.4767C99.2986 95.6874 97.4533 92.8891 95.436 90.0044L63.5377 43.6892C62.6687 42.3757 61.5813 40.6794 60.583 39.3958L42.8958 39.1815L48.9959 48.1913C54.2513 55.6278 59.3586 63.4263 64.5917 70.869L67.7282 75.5367C66.8131 77.2061 42.3498 112.554 40.4893 115.183C38.9116 117.413 37.4951 119.578 35.9369 121.775L31.3918 128.507C29.844 127.803 24.6024 122.355 23.3099 120.868C20.9644 118.171 18.8535 115.231 16.6863 111.879C7.47054 97.6215 4.13327 78.2287 7.89719 61.2364C10.5385 49.3117 15.0216 41.0789 21.8448 32.2724C23.189 30.5376 28.4282 25.0723 30.4881 23.4588C36.8836 18.4489 42.2818 14.531 51.507 11.2159C66.6855 5.76152 82.7844 5.69211 98.1597 11.1207C99.1046 11.4543 100.051 11.8324 100.984 12.2008C101.826 12.5335 102.929 13.1303 103.775 13.3574C104.28 12.8238 107.082 8.79915 107.348 8.10932C105.031 6.48302 96.9154 3.92502 93.8984 3.12738C59.3836 -5.99786 23.9141 10.8944 8.09859 41.7599C-1.08422 59.681 -2.91085 82.5696 4.96249 102.608C8.34012 111.205 11.5511 116.237 16.8322 123.068L21.1254 127.876C21.9136 128.711 22.62 129.408 23.4778 130.169C23.9657 130.602 24.0655 130.727 24.6026 131.269C27.2839 133.971 36.3419 140.421 39.6651 141.803L39.6648 141.802Z" fill="white"/>
<path fill-rule="evenodd" clip-rule="evenodd" d="M82.0498 54.2512C82.7679 55.0566 84.3434 58.1993 85.1355 59.4329L89.2515 66.4709C89.6892 67.2017 89.853 67.762 90.3964 68.2618C91.9935 66.5208 115.137 31.7852 119.877 25.1388L120.5 24.435C124.021 26.7048 130.384 35.1122 132.736 38.6129C144.817 56.5968 146.763 83.0593 138.334 102.084C136.92 105.274 135.695 107.939 133.923 110.862C129.009 118.967 122.781 125.837 114.822 131.527C97.6435 143.81 74.7652 147.73 53.757 140.943C52.5523 140.554 48.6181 138.898 47.842 138.895L44.3591 144.065C47.0523 146.037 58.2286 148.938 62.031 149.571C82.1885 152.929 101.663 148.418 117.901 137.205C136.394 124.435 150.065 101.782 150 75.9079L150 75.722C149.959 59.636 144.986 45.8999 138.438 35.6916C132.866 27.0032 124.958 18.5889 116.043 12.9371C114.656 12.0585 113.278 11.0906 111.952 10.4912C111.087 11.537 108.901 14.661 108.308 15.9829C107.955 16.7708 106.955 18.016 106.444 18.7635C105.812 19.6883 105.201 20.5501 104.55 21.5076L85.7566 48.6061C85.1453 49.4888 84.4172 50.5205 83.8486 51.3465C83.3154 52.1212 82.282 53.3607 82.0498 54.251V54.2512Z" fill="#FFBC13"/>
<path fill-rule="evenodd" clip-rule="evenodd" d="M89.2412 107.489L76.8611 125.849L94.5277 125.882C94.8237 125.218 95.5351 124.307 95.9815 123.658C96.5316 122.858 97.0162 122.083 97.5449 121.315L107.009 107.304L89.2412 107.489V107.489Z" fill="white"/>
</svg>
