<svg width="100" height="100" viewBox="0 0 100 100" fill="none" xmlns="http://www.w3.org/2000/svg">
<path fill-rule="evenodd" clip-rule="evenodd" d="M26.4432 94.0965C26.8534 93.7789 37.4039 78.292 38.7816 76.3693C41.857 72.0778 44.9459 67.3323 48.0051 63.0527L51.0608 58.5737C51.0867 58.5941 51.1252 58.5938 51.1365 58.6375L59.7682 70.9846L71.3236 70.8286C71.0979 70.2723 68.0974 66.0409 67.5125 65.2127C66.1991 63.3532 64.9689 61.4876 63.624 59.5645L42.3585 28.6877C41.7792 27.812 41.0542 26.6811 40.3887 25.8254L28.5972 25.6825L32.6639 31.6891C36.1676 36.6467 39.5724 41.8457 43.0612 46.8076L45.1522 49.9193C44.5421 51.0323 28.2332 74.5976 26.9929 76.3504C25.9411 77.8368 24.9968 79.2799 23.958 80.7446L20.9279 85.233C19.896 84.7637 16.4016 81.1316 15.5399 80.1405C13.9763 78.3421 12.569 76.3824 11.1242 74.1474C4.98036 64.6426 2.75552 51.714 5.2648 40.3858C7.02567 32.436 10.0144 26.9475 14.5632 21.0764C15.4593 19.9199 18.9521 16.2764 20.3254 15.2008C24.5891 11.8608 28.1879 9.24886 34.338 7.03881C44.457 3.40254 55.1896 3.35626 65.4398 6.97533C66.0698 7.19775 66.7004 7.44982 67.3224 7.69538C67.884 7.91722 68.6191 8.31507 69.1835 8.46648C69.5198 8.11072 71.3878 5.42762 71.5655 4.96774C70.0206 3.88354 64.6103 2.17821 62.599 1.64645C39.5891 -4.43705 15.9427 6.82449 5.39906 27.4014C-0.722816 39.3489 -1.94056 54.608 3.30833 67.9669C5.56009 73.698 7.70073 77.0527 11.2215 81.607L14.0836 84.812C14.6091 85.3689 15.08 85.8334 15.6519 86.3409C15.9771 86.6296 16.0437 86.7132 16.4018 87.074C18.1893 88.8753 24.2279 93.1752 26.4434 94.0968L26.4432 94.0965Z" fill="#0C090B"/>
<path fill-rule="evenodd" clip-rule="evenodd" d="M54.6996 35.729C55.1784 36.2659 56.2287 38.361 56.7568 39.1835L59.5007 43.8754C59.7926 44.3627 59.9018 44.7362 60.2641 45.0694C61.3287 43.9087 76.758 20.7516 79.9178 16.3207L80.3333 15.8515C82.6805 17.3647 86.9223 22.9696 88.4902 25.3035C96.5444 37.2927 97.8415 54.9344 92.2223 67.6172C91.2798 69.7444 90.4628 71.5212 89.2818 73.4695C86.0059 78.8731 81.8537 83.4526 76.5478 87.2465C65.0954 95.4348 49.8432 98.0485 35.8378 93.5234C35.0347 93.2639 32.4118 92.1605 31.8944 92.1582L29.5725 95.6047C31.368 96.9196 38.8188 98.8537 41.3537 99.2758C54.7921 101.514 67.7754 98.5072 78.6006 91.0317C90.929 82.5182 100.043 67.4161 99.9998 50.1668L99.9995 50.0428C99.9726 39.3188 96.6569 30.1615 92.292 23.3559C88.5771 17.5637 83.3051 11.9541 77.3615 8.1862C76.4373 7.6005 75.5184 6.95521 74.6346 6.55563C74.0576 7.25284 72.6004 9.33548 72.205 10.2168C71.9696 10.742 71.3028 11.5721 70.9625 12.0705C70.5414 12.687 70.1335 13.2616 69.6995 13.8999L57.1709 31.9656C56.7633 32.554 56.2779 33.2418 55.8989 33.7925C55.5434 34.309 54.8544 35.1353 54.6996 35.7288V35.729Z" fill="#FFBC13"/>
<path fill-rule="evenodd" clip-rule="evenodd" d="M59.4939 71.2211L51.2405 83.4611L63.0182 83.4834C63.2156 83.0403 63.6898 82.4329 63.9874 82.0004C64.3542 81.4673 64.6772 80.9506 65.0297 80.4382L71.3388 71.0979L59.4939 71.2213V71.2211Z" fill="#0C090B"/>
</svg>
