<svg width="151" height="99" viewBox="0 0 151 99" fill="none" xmlns="http://www.w3.org/2000/svg">
<path d="M22.8677 22.494C21.1004 24.5361 18.7828 25.9049 16.6459 27.4911C16.1211 27.758 15.8004 28.4253 15.0412 28.2508C14.6452 29.5379 13.1529 29.9946 12.7347 31.2615C12.4684 31.3173 12.7347 31.2615 12.5701 31.3688C12.4055 31.4762 11.4261 31.1427 11.7127 32.0629C9.31033 32.8695 8.57447 35.2921 7.54597 37.0992C6.45626 38.7799 5.61741 40.6105 5.05584 42.5332C4.40292 45.3411 5.43414 46.8543 8.24349 46.9691C11.9454 47.1022 15.6515 46.8842 19.3122 46.318C21.848 45.9154 24.4286 45.1354 26.8938 44.7363C31.5941 44.0134 36.0079 42.3703 40.5865 41.3348C43.5125 40.665 46.2066 39.1784 49.1738 38.6269C49.7978 38.5037 50.4766 37.9177 51.1664 38.6904C51.3963 38.8984 52.3401 39.2265 51.8466 38.1325C51.5748 37.5089 52.1069 37.5319 52.4639 37.4504C53.2659 37.2051 54.0692 36.988 54.8793 36.7635C55.475 36.6418 55.9888 36.2976 56.5764 36.155C61.9581 34.4707 66.269 30.7653 71.2521 28.3291C71.6604 27.7437 72.1727 27.2382 72.7636 26.8378C74.2142 26.1874 75.5868 25.3756 76.8555 24.4177C77.4034 24.1346 77.9852 23.9224 78.5869 23.7863C78.707 23.7728 78.8282 23.7739 78.9481 23.7895C79.2758 23.8298 79.8573 24.2751 79.5862 23.3824C80.5457 22.5741 81.7161 22.0564 82.9597 21.8903C83.3976 21.8684 83.9896 22.5256 84.2122 21.5942C85.0441 21.0182 86.0227 20.6909 87.0336 20.6505C88.0446 20.6101 89.0462 20.8583 89.9214 21.3661C90.1552 21.5423 90.338 21.7775 90.4509 22.0477C90.5386 22.6117 90.5046 23.1879 90.3512 23.7377C90.2146 24.1773 90.0239 24.5982 89.7835 24.9908C88.4878 26.1244 87.6076 27.7825 85.7223 28.1668C84.9335 27.9655 84.4779 28.4838 84.0142 28.9812C81.2415 30.6509 78.3615 32.1355 75.3931 33.4254C74.8685 33.6418 74.3317 33.827 73.7853 33.98C70.2511 35.7988 66.4045 36.8897 62.9434 38.896C59.3535 41.1248 55.942 43.6289 52.7396 46.3856C49.9866 48.6177 47.4935 51.1526 45.3074 53.9423C43.9998 55.5781 43.1892 57.5548 42.9718 59.6377C42.8141 61.3022 43.6739 62.2151 45.243 62.7316C49.5971 64.1499 53.6821 62.5869 57.8319 61.7569C59.5957 61.5187 61.3305 61.1001 63.0087 60.5075C63.598 60.489 64.1591 60.2515 64.5826 59.8414C67.3371 58.2881 70.4809 58.1526 73.4902 57.4503C74.1121 57.3078 74.7249 57.1283 75.3254 56.9127C75.7401 56.7817 76.1417 56.6124 76.525 56.4069C76.6797 56.3283 76.843 56.2679 77.0116 56.2268C77.8715 56.1053 78.696 55.8036 79.4312 55.3415C80.4307 54.6891 81.576 54.294 82.7651 54.1912C83.1443 54.2548 83.5329 54.2298 83.9008 54.1181C84.2686 54.0064 84.6056 53.8111 84.8853 53.5474C87.0913 52.4957 89.3676 51.5751 91.1765 49.7999C91.6508 49.5172 92.1417 49.2634 92.6466 49.0399C93.4753 49.3313 93.8603 48.5333 94.4712 48.2905C97.5 46.9854 100.404 45.1626 103.666 44.2849C105.178 43.2254 106.984 43.2415 108.678 42.9801C110.371 42.7187 111.355 43.8519 112.033 45.2341C112.71 46.6163 111.957 47.553 111.096 48.3251C109.502 49.8362 107.543 50.9073 105.411 51.4335C104.4 50.1954 104.907 51.9896 104.458 51.92C103.739 52.4451 102.946 52.8593 102.105 53.1489C101.605 53.3437 101.145 53.6286 100.659 53.8228C100.226 53.9535 99.7713 54.0002 99.3205 53.9603C98.1111 53.702 97.4969 54.8725 96.5194 55.1478C91.7486 57.1557 86.6026 58.3115 82.4619 61.7393C81.4487 62.5757 80.5965 63.8005 79.1328 64.1213C78.8669 64.3557 78.6283 64.6193 78.4215 64.9072C77.0939 67.1045 74.7551 68.3326 73.4242 70.6079C72.3353 72.4817 71.1857 74.2736 71.1282 76.5279C71.0718 76.9826 71.1815 77.4423 71.4373 77.8224C71.693 78.2026 72.0775 78.4775 72.5199 78.5966C74.302 79.2245 76.1832 79.5241 78.0721 79.4808C82.4975 79.4185 86.908 78.9545 91.2494 78.0945C93.3883 77.6834 95.5886 77.3683 97.7101 76.7528C100.948 75.8125 103.013 73.3378 105.461 71.3183C108.318 68.9811 111.007 66.3974 114.388 64.7774C115.53 64.3907 116.571 63.7507 117.431 62.9052C117.678 62.6292 117.958 62.3846 118.265 62.1769C120.205 61.3155 122.089 60.3507 124.005 59.441C126.289 58.8103 128.59 57.9663 130.915 57.3052C132.196 56.9349 133.55 56.8909 134.852 57.1771C136.155 57.4633 137.366 58.0707 138.374 58.9439C138.793 59.7088 139.117 60.5226 139.337 61.3668C139.445 62.0441 139.395 62.7372 139.19 63.3918C138.745 64.8371 137.529 65.7049 136.591 66.7853C135.861 67.5555 134.994 68.1843 134.036 68.6402C133.357 68.9274 132.713 69.2896 132.114 69.7201C130.306 70.452 128.554 71.3131 126.869 72.2968C126.084 72.7324 125.148 71.9932 124.586 72.9275C123.936 74.3759 122.413 74.3739 121.231 74.9356C120.594 75.2363 119.853 75.2662 119.217 75.5811C115.643 77.7417 111.569 78.3839 107.677 79.5691C106.374 79.9627 105.05 80.2816 103.711 80.5244C101.74 80.8988 100.797 82.5813 99.7876 84.0547C98.4443 86.0577 97.4963 88.299 96.9947 90.6579C96.8593 91.2098 96.1425 91.5995 96.5954 92.3062C98.6089 94.7757 101.39 94.4601 103.972 94.0056C106.261 93.6224 108.685 93.6715 110.765 92.3571C111.04 92.1876 111.397 92.4035 111.713 92.4868C112.029 92.5702 112.664 93.2536 112.933 92.2419C113.497 91.9094 114.134 91.7174 114.788 91.6821C118.976 90.8998 122.981 89.454 127.05 88.2811C127.735 88.0913 128.428 87.9364 129.121 87.7814C129.9 87.6634 130.66 87.4446 131.383 87.1306C133.123 85.8331 135.441 86.3122 137.257 85.2447C138.718 85.2992 139.955 84.5437 141.262 84.0679C143.533 83.0484 146.011 82.9036 148.311 82.0314C148.708 81.8712 149.149 81.8593 149.554 81.9977C149.958 82.1361 150.3 82.4157 150.515 82.7852C151.14 84.9417 150.609 86.363 148.648 86.9492C145.126 88.0099 141.901 89.9336 138.179 90.3812C137.92 90.4577 137.655 90.5276 137.389 90.5834C135.487 91.0605 133.694 91.8792 131.801 92.3913C131.59 92.4755 131.365 92.516 131.138 92.5103C130.911 92.5046 130.688 92.4527 130.482 92.3579C127.868 92.8918 125.374 93.8446 122.681 94.2125C121.365 94.3702 119.835 95.5084 118.301 95.8327C114.96 96.5445 111.573 97.2019 108.256 97.9903C105.764 98.503 103.233 98.8069 100.691 98.8986C98.221 99.0642 94.917 97.9759 93.9064 95.4563C93.4228 94.2768 94.5069 94.152 94.443 93.8649C94.1205 92.2243 93.4563 94.8062 93.0909 93.8686C92.7684 93.0878 92.6646 92.2339 92.7908 91.3985C93.2097 88.5929 94.0424 85.8648 95.2615 83.3034C95.4215 82.9627 95.5088 82.5831 95.6451 82.194C90.4133 83.1523 85.135 83.8362 79.8318 84.2428C76.6706 84.3756 73.5086 84.0003 70.4663 83.131C67.4939 82.3022 65.0982 78.2729 66.7323 73.8444C68.402 69.5352 70.9912 65.6418 74.3194 62.4356C71.0014 63.479 67.5137 63.8157 64.3877 65.5858C63.2933 66.2139 61.2467 65.7779 59.896 66.3762C57.2973 67.5041 54.555 67.5983 51.8808 68.0645C48.4065 68.6696 44.8276 68.8835 41.6679 66.7118C40.1388 65.5442 39.0165 63.9243 38.4607 62.0824C37.905 60.2404 37.9439 58.2702 38.5721 56.4517C40.2313 52.4064 42.9078 48.8586 46.3419 46.1524C47.3419 45.4201 48.1821 44.4917 48.8112 43.4239C48.9179 43.359 49.0358 43.3147 49.1588 43.2933C48.8325 42.998 48.4508 43.1516 48.0881 43.1201C45.0862 44.1123 42.1128 45.2518 39.0587 46.0483C35.1849 47.0203 31.3023 47.9573 27.4882 49.1316C25.2574 49.695 22.9996 50.1454 20.7234 50.4814C17.6177 51.0964 14.4234 51.7796 11.1847 51.2898C9.73289 51.1831 8.27531 51.1801 6.82306 51.2808C6.12599 51.4996 6.07635 50.3622 5.37257 50.5885C3.9002 49.7415 1.69469 49.5258 1.89981 47.1085C2.01473 45.8637 0.612616 45.1478 0.868047 44.1651C1.65447 41.1949 1.61465 37.841 4.08567 35.5726C4.74889 34.9589 3.82676 33.504 5.34725 33.6122C6.15213 32.5738 6.4348 31.1438 7.70998 30.4501C9.76533 27.9803 12.1191 25.7749 14.7173 23.8845C18.324 21.3896 21.6842 18.4963 25.544 16.3922C28.343 14.8791 30.9668 12.9783 33.966 11.6464C34.9929 11.2271 35.6089 9.95029 36.9151 9.87807C37.521 9.81953 37.9639 9.33017 38.5455 9.20913C41.5172 7.04318 45.0873 5.94477 48.0746 3.80636C48.5326 3.47908 49.1558 3.625 49.6989 3.72535C49.6989 3.72535 49.7727 3.64379 49.7995 3.61413C49.7932 3.55107 49.7757 3.48964 49.748 3.43263C49.8773 2.90227 50.336 2.8723 50.7488 2.77384C53.0325 2.14313 54.8279 0.382747 57.2775 0.239351C58.0522 0.158237 58.9855 -0.00866397 59.0821 1.07682C59.1787 2.16229 58.0191 2.475 57.1359 2.79515C52.7997 5.42563 48.2157 7.6295 43.7862 10.0947C42.2639 10.9423 41.032 12.6463 38.8275 12.5934C38.0478 12.5756 37.3781 14.1949 36.234 14.5352C36.5764 15.1553 35.9147 15.2308 35.6894 15.2562C32.7836 15.6206 31.1102 18.6917 28.0656 18.6878C27.5502 20.4197 25.54 20.2863 24.5659 21.4818C24.3781 21.7811 24.1201 22.0299 23.8143 22.2068C23.5085 22.3837 23.1642 22.4832 22.8112 22.4968C22.485 21.9184 22.573 21.2697 22.244 20.6348C22.4734 21.2605 22.4232 21.9568 22.8677 22.494Z" fill="white"/>
</svg>
